<svg width="32" height="32" viewBox="0 0 32 32" fill="none" xmlns="http://www.w3.org/2000/svg">
<g clip-path="url(#clip0_214_33)">
<path d="M15 20H9C8.20435 20 7.44129 20.3161 6.87868 20.8787C6.31607 21.4413 6 22.2044 6 23V25H8V23C8 22.7348 8.10536 22.4804 8.29289 22.2929C8.48043 22.1054 8.73478 22 9 22H15C15.2652 22 15.5196 22.1054 15.7071 22.2929C15.8946 22.4804 16 22.7348 16 23V25H18V23C18 22.2044 17.6839 21.4413 17.1213 20.8787C16.5587 20.3161 15.7956 20 15 20Z" fill="white"/>
<path d="M12 19C12.7911 19 13.5645 18.7654 14.2223 18.3259C14.8801 17.8864 15.3928 17.2616 15.6955 16.5307C15.9983 15.7998 16.0775 14.9956 15.9231 14.2196C15.7688 13.4437 15.3878 12.731 14.8284 12.1716C14.269 11.6122 13.5563 11.2312 12.7804 11.0769C12.0044 10.9225 11.2002 11.0017 10.4693 11.3045C9.73836 11.6072 9.11365 12.1199 8.67412 12.7777C8.2346 13.4355 8 14.2089 8 15C8 16.0609 8.42143 17.0783 9.17157 17.8284C9.92172 18.5786 10.9391 19 12 19ZM12 13C12.3956 13 12.7822 13.1173 13.1111 13.3371C13.44 13.5568 13.6964 13.8692 13.8478 14.2346C13.9991 14.6001 14.0387 15.0022 13.9616 15.3902C13.8844 15.7781 13.6939 16.1345 13.4142 16.4142C13.1345 16.6939 12.7781 16.8844 12.3902 16.9616C12.0022 17.0387 11.6001 16.9991 11.2346 16.8478C10.8692 16.6964 10.5568 16.44 10.3371 16.1111C10.1173 15.7822 10 15.3956 10 15C10 14.4696 10.2107 13.9609 10.5858 13.5858C10.9609 13.2107 11.4696 13 12 13Z" fill="white"/>
<path d="M28 19V28H4V8H16V6H4C3.46957 6 2.96086 6.21071 2.58579 6.58579C2.21071 6.96086 2 7.46957 2 8V28C2 28.5304 2.21071 29.0391 2.58579 29.4142C2.96086 29.7893 3.46957 30 4 30H28C28.5304 30 29.0391 29.7893 29.4142 29.4142C29.7893 29.0391 30 28.5304 30 28V19H28Z" fill="white"/>
<path d="M26 19H20V21H26V19Z" fill="white"/>
<path d="M26 23H22V25H26V23Z" fill="white"/>
<path d="M32 10V8H29.8989C29.77 7.37406 29.5214 6.77888 29.167 6.2471L30.657 4.7571L29.243 3.3431L27.753 4.8331C27.2212 4.47861 26.626 4.23006 26 4.1011V2H24V4.1011C23.3741 4.23004 22.7789 4.47855 22.2471 4.833L20.7571 3.343L19.3431 4.757L20.8331 6.247C20.4786 6.77881 20.2301 7.37402 20.1011 8H18V10H20.1011C20.23 10.6259 20.4786 11.2211 20.833 11.7529L19.343 13.2429L20.757 14.6569L22.247 13.1669C22.7788 13.5214 23.374 13.7699 24 13.8989V16H26V13.8989C26.6259 13.77 27.2211 13.5214 27.7529 13.167L29.2429 14.657L30.6569 13.243L29.1669 11.753C29.5214 11.2212 29.7699 10.626 29.8989 10H32ZM25 12C24.4067 12 23.8266 11.8241 23.3333 11.4944C22.8399 11.1648 22.4554 10.6962 22.2284 10.1481C22.0013 9.59987 21.9419 8.99667 22.0576 8.41473C22.1734 7.83279 22.4591 7.29824 22.8787 6.87868C23.2982 6.45912 23.8328 6.1734 24.4147 6.05764C24.9967 5.94189 25.5999 6.0013 26.1481 6.22836C26.6962 6.45542 27.1648 6.83994 27.4944 7.33329C27.8241 7.82664 28 8.40666 28 9C27.9991 9.79538 27.6828 10.5579 27.1204 11.1204C26.5579 11.6828 25.7954 11.9991 25 12Z" fill="white"/>
</g>
<defs>
<clipPath id="clip0_214_33">
<rect width="32" height="32" fill="white"/>
</clipPath>
</defs>
</svg>
