<svg width="32" height="32" viewBox="0 0 32 32" fill="none" xmlns="http://www.w3.org/2000/svg">
<g clip-path="url(#clip0_214_41)">
<path d="M23 24H19V28H23V24Z" fill="white"/>
<path d="M30 24H26V28H30V24Z" fill="white"/>
<path d="M23 17H19V21H23V17Z" fill="white"/>
<path d="M30 17H26V21H30V17Z" fill="white"/>
<path d="M17 24H4V10H28V15H30V10C29.9994 9.46975 29.7885 8.9614 29.4135 8.58646C29.0386 8.21152 28.5302 8.00061 28 8H22V4C21.9994 3.46975 21.7885 2.9614 21.4135 2.58646C21.0386 2.21152 20.5302 2.00061 20 2H12C11.4697 2.00053 10.9613 2.21141 10.5864 2.58637C10.2114 2.96133 10.0005 3.46973 10 4V8H4C3.46973 8.00053 2.96133 8.21141 2.58637 8.58637C2.21141 8.96133 2.00053 9.46973 2 10V24C2.00061 24.5302 2.21152 25.0386 2.58646 25.4135C2.9614 25.7885 3.46975 25.9994 4 26H17V24ZM12 4H20V8H12V4Z" fill="white"/>
</g>
<defs>
<clipPath id="clip0_214_41">
<rect width="32" height="32" fill="white"/>
</clipPath>
</defs>
</svg>
