<svg width="32" height="32" viewBox="0 0 32 32" fill="none" xmlns="http://www.w3.org/2000/svg">
<g clip-path="url(#clip0_214_48)">
<path d="M30 22H2V24H30V22Z" fill="white"/>
<path d="M30 26H2V28H30V26Z" fill="white"/>
<path d="M24 10C23.6044 10 23.2178 10.1173 22.8889 10.3371C22.56 10.5568 22.3036 10.8692 22.1522 11.2346C22.0009 11.6001 21.9613 12.0022 22.0384 12.3902C22.1156 12.7781 22.3061 13.1345 22.5858 13.4142C22.8655 13.6939 23.2219 13.8844 23.6098 13.9616C23.9978 14.0387 24.3999 13.9991 24.7654 13.8478C25.1308 13.6964 25.4432 13.44 25.6629 13.1111C25.8827 12.7822 26 12.3956 26 12C26 11.4696 25.7893 10.9609 25.4142 10.5858C25.0391 10.2107 24.5304 10 24 10Z" fill="white"/>
<path d="M16 16C15.2089 16 14.4355 15.7654 13.7777 15.3259C13.1199 14.8864 12.6072 14.2616 12.3045 13.5307C12.0017 12.7998 11.9225 11.9956 12.0769 11.2196C12.2312 10.4437 12.6122 9.73098 13.1716 9.17157C13.731 8.61216 14.4437 8.2312 15.2196 8.07686C15.9956 7.92252 16.7998 8.00173 17.5307 8.30448C18.2616 8.60723 18.8864 9.11993 19.3259 9.77772C19.7654 10.4355 20 11.2089 20 12C19.9988 13.0605 19.577 14.0772 18.8271 14.8271C18.0772 15.577 17.0605 15.9988 16 16ZM16 10C15.6044 10 15.2178 10.1173 14.8889 10.3371C14.56 10.5568 14.3036 10.8692 14.1522 11.2346C14.0009 11.6001 13.9613 12.0022 14.0384 12.3902C14.1156 12.7781 14.3061 13.1345 14.5858 13.4142C14.8655 13.6939 15.2219 13.8844 15.6098 13.9616C15.9978 14.0387 16.3999 13.9991 16.7654 13.8478C17.1308 13.6964 17.4432 13.44 17.6629 13.1111C17.8827 12.7822 18 12.3956 18 12C17.9995 11.4697 17.7886 10.9613 17.4136 10.5864C17.0387 10.2114 16.5303 10.0005 16 10Z" fill="white"/>
<path d="M8 10C7.60444 10 7.21776 10.1173 6.88886 10.3371C6.55996 10.5568 6.30362 10.8692 6.15224 11.2346C6.00087 11.6001 5.96126 12.0022 6.03843 12.3902C6.1156 12.7781 6.30608 13.1345 6.58579 13.4142C6.86549 13.6939 7.22186 13.8844 7.60982 13.9616C7.99778 14.0387 8.39992 13.9991 8.76537 13.8478C9.13082 13.6964 9.44318 13.44 9.66294 13.1111C9.8827 12.7822 10 12.3956 10 12C10 11.4696 9.78929 10.9609 9.41421 10.5858C9.03914 10.2107 8.53043 10 8 10Z" fill="white"/>
<path d="M28 20H4C3.46998 19.9987 2.96206 19.7875 2.58727 19.4127C2.21249 19.0379 2.00135 18.53 2 18V6C2.00135 5.46998 2.21249 4.96205 2.58727 4.58727C2.96206 4.21249 3.46998 4.00135 4 4H28C28.53 4.00135 29.0379 4.21249 29.4127 4.58727C29.7875 4.96205 29.9987 5.46998 30 6V18C29.9993 18.5302 29.7883 19.0385 29.4134 19.4134C29.0385 19.7883 28.5302 19.9993 28 20ZM28 6H4V18H28V6Z" fill="white"/>
</g>
<defs>
<clipPath id="clip0_214_48">
<rect width="32" height="32" fill="white"/>
</clipPath>
</defs>
</svg>
